<?xml version="1.0" encoding="utf-8"?>
<!-- Generator: Adobe Illustrator 22.0.1, SVG Export Plug-In . SVG Version: 6.00 Build 0)  -->
<svg version="1.1" xmlns="http://www.w3.org/2000/svg" xmlns:xlink="http://www.w3.org/1999/xlink" x="0px" y="0px"
	 viewBox="0 0 120 80" style="enable-background:new 0 0 120 80;" xml:space="preserve">
<style type="text/css">
	.st0{display:none;}
	.st1{display:inline;fill:#040006;}
	.st2{fill:#040006;}
</style>
<g id="Capa_2" class="st0">
	<rect class="st1" width="120" height="80"/>
</g>
<g id="Capa_1">
	<g>
		<path class="st2" d="M93.9,50.9c0.4-1.4,2-2.5,2.3-3.9c0.3-1.4-0.8-3-0.7-4.5c0.1-1.5,1.4-2.9,1.3-4.3c-0.1-1.5-1.5-2.8-1.7-4.2
			c-0.2-1.4,0.7-3.1,0.3-4.5c-0.4-1.4-2-2.4-2.6-3.7c-0.5-1.3,0-3.2-0.7-4.5c-0.7-1.3-2.5-1.9-3.3-3c-0.8-1.2-0.7-3.1-1.7-4.2
			c-0.9-1.1-2.9-1.3-3.9-2.2c-1.1-1-1.4-2.9-2.5-3.7c-1.2-0.9-3.1-0.6-4.3-1.3c-1.2-0.7-2-2.5-3.3-3.1c-1.3-0.6-3.1,0.1-4.5-0.3
			c-1.4-0.4-2.5-2-3.9-2.3c-1.4-0.3-3,0.8-4.5,0.7c-1.5-0.1-2.9-1.4-4.3-1.3c-1.5,0.1-2.8,1.5-4.2,1.7c-1.4,0.2-3.1-0.7-4.5-0.3
			c-1.4,0.4-2.4,2-3.7,2.6c-1.3,0.5-3.2,0-4.5,0.7c-1.3,0.7-1.9,2.5-3,3.3c-1.2,0.8-3.1,0.7-4.2,1.7c-1.1,0.9-1.3,2.9-2.2,3.9
			c-1,1.1-2.9,1.4-3.7,2.5c-0.9,1.2-0.6,3.1-1.3,4.3c-0.7,1.2-2.5,2-3.1,3.3c-0.6,1.3,0.1,3.1-0.3,4.5c-0.4,1.4-2,2.5-2.3,3.9
			c-0.3,1.4,0.8,3,0.7,4.5c-0.1,1.5-1.4,2.9-1.3,4.3c0.1,1.5,1.5,2.8,1.7,4.2c0.2,1.4-0.7,3.1-0.3,4.5c0.4,1.4,2,2.4,2.6,3.7
			c0.5,1.3,0,3.2,0.7,4.5c0.7,1.3,2.5,1.9,3.3,3c0.8,1.2,0.7,3.1,1.7,4.2c0.9,1.1,2.9,1.3,3.9,2.2c1.1,1,1.4,2.9,2.5,3.7
			c1.2,0.9,3.1,0.6,4.3,1.3c1.2,0.7,2,2.5,3.3,3.1c1.3,0.6,3.1-0.1,4.5,0.3c1.4,0.4,2.5,2,3.9,2.3c1.4,0.3,3-0.8,4.5-0.7
			c1.5,0.1,2.9,1.4,4.3,1.3c1.5-0.1,2.8-1.5,4.2-1.7c1.4-0.2,3.1,0.7,4.5,0.3c1.4-0.4,2.4-2,3.7-2.6c1.3-0.5,3.2,0,4.5-0.7
			c1.3-0.7,1.9-2.5,3-3.3c1.2-0.8,3.1-0.7,4.2-1.7c1.1-0.9,1.3-2.9,2.2-3.9c1-1.1,2.9-1.4,3.7-2.5c0.8-1.2,0.6-3.1,1.3-4.3
			c0.7-1.2,2.5-2,3.1-3.3C94.1,54.1,93.5,52.3,93.9,50.9z M51.1,74.6c-19.2-3.5-31.9-22-28.3-41.2c3.5-19.2,22-31.9,41.2-28.3
			c19.2,3.5,31.9,22,28.3,41.2C88.7,65.4,70.2,78.1,51.1,74.6z"/>
		<path class="st2" d="M61.1,17.4l0.8,0.1c0.1,0,0.1,0,0.1-0.1L61.9,15c0-0.1,0-0.1,0,0L61,17.3C61,17.3,61,17.3,61.1,17.4
			C61,17.4,61,17.4,61.1,17.4z"/>
		<path class="st2" d="M52.1,16.2l0.9-0.1c0,0,0.1,0,0.1,0c0,0,0-0.1,0-0.1l-0.2-1.8c0,0,0-0.1,0-0.1c0,0,0-0.1-0.1-0.1l-0.4-0.5
			c0,0,0,0-0.1-0.1c0,0-0.1,0-0.1,0l-0.4,0c-0.1,0-0.1,0.1-0.1,0.1l0.3,2.5C52,16.1,52,16.2,52.1,16.2z"/>
		<path class="st2" d="M52.6,17.1c0,0-0.1,0-0.1,0l-0.4,0c0,0-0.1,0-0.1,0c0,0,0,0.1,0,0.1l0.3,2.5c0,0.1,0.1,0.1,0.1,0.1l0.9-0.1
			c0,0,0.1,0,0.1,0c0,0,0-0.1,0-0.1l-0.2-1.8c0,0,0-0.1,0-0.1c0,0,0-0.1-0.1-0.1L52.6,17.1C52.7,17.1,52.7,17.1,52.6,17.1z"/>
		<g>
			<path class="st2" d="M62.3,61.5c0-0.2,0.1-0.5,0.3-0.6c-0.1-0.3-0.2-0.4-0.4-0.4c-0.8,0.1-0.9,1.8-0.8,2.5
				c0.1,0.5,0.3,0.6,0.6,0.6c0.5-0.1,0.7-0.9,0.7-1.7C62.5,61.9,62.3,61.7,62.3,61.5z"/>
			<path class="st2" d="M51.7,62.9c-0.1,0.5,0.2,0.6,0.4,0.7c0.2,0,0.4-0.1,0.6-0.3c0-0.1,0.1-0.2,0.1-0.3l0.8-2.1
				c-0.1-0.1-0.3-0.2-0.4-0.2C52.6,60.5,51.9,61.8,51.7,62.9z"/>
			<path class="st2" d="M46.2,58.5c-0.6-0.3-1.6,0.7-2.1,1.8c-0.2,0.5,0,0.7,0.2,0.7c0.2,0.1,0.4,0,0.7-0.2c0-0.1,0.1-0.2,0.2-0.2
				l1.4-1.8C46.4,58.7,46.3,58.6,46.2,58.5z"/>
		</g>
		<g>
			<path class="st2" d="M63.8,5.5c-18.9-3.5-37.2,9.1-40.7,28c-3.5,18.9,9.1,37.2,28,40.7c18.9,3.5,37.2-9.1,40.7-28
				C95.3,27.3,82.8,9,63.8,5.5z M90.7,45.5c0,0.1-0.1,0.2-0.2,0.2l0,0c-0.1,0-0.2-0.1-0.2-0.2l0-0.2c0-0.1,0.1-0.2,0.2-0.2
				c0.1,0,0.2,0.1,0.2,0.2L90.7,45.5z M90.8,44.5c0,0.1-0.1,0.2-0.2,0.2c0,0,0,0,0,0c-0.1,0-0.2-0.1-0.2-0.2l0-0.2
				c0-0.1,0.1-0.2,0.2-0.2c0.1,0,0.2,0.1,0.2,0.2L90.8,44.5z M91,43.3l0,0.2c0,0.1-0.1,0.2-0.2,0.2c0,0,0,0,0,0
				c-0.1,0-0.2-0.1-0.2-0.2l0-0.2c0-0.1,0.1-0.2,0.2-0.2C90.9,43.1,91,43.2,91,43.3z M91.1,42.3l0,0.2c0,0.1-0.1,0.2-0.2,0.2
				c0,0,0,0,0,0c-0.1,0-0.2-0.1-0.2-0.2l0-0.2c0-0.1,0.1-0.2,0.2-0.2C91,42.1,91.1,42.2,91.1,42.3z M91.1,41.3l0,0.2
				c0,0.1-0.1,0.2-0.2,0.2c0,0,0,0,0,0c-0.1,0-0.2-0.1-0.2-0.2l0-0.2c0-0.1,0.1-0.2,0.2-0.2C91.1,41.1,91.1,41.2,91.1,41.3z
				 M91.2,40.2l0,0.2c0,0.1-0.1,0.2-0.2,0.2c0,0,0,0,0,0c-0.1,0-0.2-0.1-0.2-0.2l0-0.2c0-0.1,0.1-0.2,0.2-0.2
				C91.1,40,91.2,40.1,91.2,40.2z M91.2,39.2l0,0.2c0,0.1-0.1,0.2-0.2,0.2c0,0,0,0,0,0c-0.1,0-0.2-0.1-0.2-0.2l0-0.2
				c0-0.1,0.1-0.2,0.2-0.2C91.1,39,91.2,39.1,91.2,39.2z M91.1,38.2l0,0.2c0,0.1-0.1,0.2-0.2,0.2c0,0,0,0,0,0
				c-0.1,0-0.2-0.1-0.2-0.2l0-0.2c0-0.1,0.1-0.2,0.2-0.2C91,38,91.1,38.1,91.1,38.2z M91.1,37.2l0,0.2c0,0.1-0.1,0.2-0.2,0.2
				c0,0,0,0-0.1,0c-0.1,0-0.2-0.1-0.2-0.2l0-0.2c0-0.1,0.1-0.2,0.2-0.2C91,37,91.1,37.1,91.1,37.2z M91,36.2l0,0.2
				c0,0.1-0.1,0.2-0.2,0.2c0,0,0,0-0.1,0c-0.1,0-0.2-0.1-0.2-0.2l0-0.2c0-0.1,0.1-0.2,0.2-0.2C90.9,36,91,36.1,91,36.2z M90.8,35.2
				l0,0.2c0,0.1-0.1,0.2-0.2,0.2c0,0,0,0-0.1,0c-0.1,0-0.2-0.1-0.2-0.2l0-0.2c0-0.1,0.1-0.2,0.2-0.2C90.7,35,90.8,35.1,90.8,35.2z
				 M90.7,34.2l0,0.2c0,0.1-0.1,0.2-0.2,0.2c0,0,0,0-0.1,0c-0.1,0-0.1-0.1-0.2-0.2l0-0.2c0-0.1,0.1-0.2,0.2-0.2
				C90.6,34,90.7,34.1,90.7,34.2z M90.5,33.2l0,0.2c0,0.1,0,0.2-0.2,0.2c0,0-0.1,0-0.1,0c-0.1,0-0.1-0.1-0.2-0.2l0-0.2
				c0-0.1,0.1-0.2,0.2-0.2C90.4,33,90.5,33.1,90.5,33.2z M90.3,32.2l0,0.2c0,0.1,0,0.2-0.2,0.2c0,0-0.1,0-0.1,0
				c-0.1,0-0.1-0.1-0.2-0.2l0-0.2c0-0.1,0-0.2,0.2-0.2C90.2,32,90.3,32.1,90.3,32.2z M89.8,31c0.1,0,0.2,0,0.2,0.1l0.1,0.2
				c0,0.1,0,0.2-0.1,0.2c0,0-0.1,0-0.1,0c-0.1,0-0.1-0.1-0.2-0.1l-0.1-0.2C89.6,31.2,89.7,31.1,89.8,31z M89.5,30.1
				c0.1,0,0.2,0,0.3,0.1l0.1,0.2c0,0.1,0,0.2-0.1,0.3c0,0-0.1,0-0.1,0c-0.1,0-0.1-0.1-0.2-0.1l-0.1-0.2
				C89.3,30.2,89.4,30.1,89.5,30.1z M89.2,29.1c0.1,0,0.2,0,0.3,0.1l0.1,0.2c0,0.1,0,0.2-0.1,0.3c0,0-0.1,0-0.1,0
				c-0.1,0-0.1-0.1-0.2-0.1l-0.1-0.2C89,29.3,89.1,29.1,89.2,29.1z M88.9,28.2c0.1,0,0.2,0,0.3,0.1l0.1,0.2c0,0.1,0,0.2-0.1,0.3
				c0,0-0.1,0-0.1,0c-0.1,0-0.1-0.1-0.2-0.1l-0.1-0.2C88.7,28.3,88.8,28.2,88.9,28.2z M88.5,27.2c0.1,0,0.2,0,0.3,0.1l0.1,0.2
				c0,0.1,0,0.2-0.1,0.3c0,0-0.1,0-0.1,0c-0.1,0-0.1-0.1-0.2-0.1l-0.1-0.2C88.3,27.4,88.4,27.3,88.5,27.2z M88.1,26.3
				c0.1,0,0.2,0,0.3,0.1l0.1,0.2c0,0.1,0,0.2-0.1,0.3c0,0-0.1,0-0.1,0c-0.1,0-0.1-0.1-0.1-0.1L88,26.6C87.9,26.4,88,26.3,88.1,26.3z
				 M87.7,25.4c0.1,0,0.2,0,0.3,0.1l0.1,0.2c0,0.1,0,0.2-0.1,0.3c0,0-0.1,0-0.1,0c-0.1,0-0.1-0.1-0.1-0.1l-0.1-0.2
				C87.5,25.5,87.6,25.4,87.7,25.4z M87.2,24.5c0.1-0.1,0.2,0,0.3,0.1l0.1,0.2c0,0.1,0,0.2-0.1,0.3c0,0-0.1,0-0.1,0
				c-0.1,0-0.1,0-0.1-0.1l-0.1-0.2C87.1,24.6,87.1,24.5,87.2,24.5z M86.7,23.6c0.1-0.1,0.2,0,0.3,0.1l0.1,0.2c0.1,0.1,0,0.2-0.1,0.3
				c0,0-0.1,0-0.1,0c-0.1,0-0.1,0-0.1-0.1l-0.1-0.2C86.6,23.7,86.6,23.6,86.7,23.6z M86.2,22.7c0.1-0.1,0.2,0,0.3,0.1l0.1,0.2
				c0.1,0.1,0,0.2-0.1,0.3c0,0-0.1,0-0.1,0c-0.1,0-0.1,0-0.1-0.1L86.2,23C86.1,22.9,86.1,22.7,86.2,22.7z M85.7,21.8
				c0.1-0.1,0.2,0,0.3,0.1l0.1,0.2c0.1,0.1,0,0.2-0.1,0.3c0,0-0.1,0-0.1,0c-0.1,0-0.1,0-0.1-0.1l-0.1-0.2
				C85.6,22,85.6,21.9,85.7,21.8z M85.1,21c0.1-0.1,0.2,0,0.3,0.1l0.1,0.2c0.1,0.1,0,0.2-0.1,0.3c0,0-0.1,0-0.1,0
				c-0.1,0-0.1,0-0.1-0.1l-0.1-0.2C85,21.2,85.1,21,85.1,21z M84.6,20.2c0.1-0.1,0.2,0,0.3,0l0.1,0.2c0.1,0.1,0,0.2,0,0.3
				c0,0-0.1,0-0.2,0c-0.1,0-0.1,0-0.1-0.1l-0.1-0.2C84.4,20.3,84.5,20.2,84.6,20.2z M84,19.3c0.1-0.1,0.2-0.1,0.3,0l0.1,0.2
				c0.1,0.1,0,0.2,0,0.3c0,0-0.1,0-0.2,0c0,0-0.1,0-0.1-0.1l-0.1-0.2C83.8,19.5,83.9,19.4,84,19.3z M83.3,18.6
				c0.1-0.1,0.2-0.1,0.3,0l0.1,0.2c0.1,0.1,0.1,0.2,0,0.3c0,0-0.1,0.1-0.2,0c0,0-0.1,0-0.1-0.1l-0.1-0.2
				C83.2,18.8,83.2,18.6,83.3,18.6z M82.7,17.8c0.1-0.1,0.2-0.1,0.3,0l0.1,0.2c0.1,0.1,0.1,0.2,0,0.3c0,0-0.1,0.1-0.2,0
				c0,0-0.1,0-0.1-0.1l-0.1-0.2C82.6,18,82.6,17.9,82.7,17.8z M82,17c0.1-0.1,0.2-0.1,0.3,0l0.1,0.2c0.1,0.1,0.1,0.2,0,0.3
				c0,0-0.1,0.1-0.2,0c0,0-0.1,0-0.1-0.1L82,17.3C81.9,17.2,81.9,17.1,82,17z M81.3,16.3c0.1-0.1,0.2-0.1,0.3,0l0.1,0.1
				c0.1,0.1,0.1,0.2,0,0.3c0,0-0.1,0.1-0.2,0.1c0,0-0.1,0-0.1-0.1l-0.1-0.1C81.2,16.5,81.2,16.4,81.3,16.3z M80.6,15.6
				c0.1-0.1,0.2-0.1,0.3,0l0.1,0.1c0.1,0.1,0.1,0.2,0,0.3c0,0.1-0.1,0.1-0.2,0.1c0,0-0.1,0-0.1-0.1l-0.1-0.1
				C80.5,15.8,80.5,15.7,80.6,15.6z M79.8,14.9c0.1-0.1,0.2-0.1,0.3,0l0.2,0.1c0.1,0.1,0.1,0.2,0,0.3c0,0.1-0.1,0.1-0.2,0.1
				c0,0-0.1,0-0.1-0.1l-0.1-0.1C79.7,15.1,79.7,15,79.8,14.9z M79.1,14.2c0.1-0.1,0.2-0.1,0.3,0l0.2,0.1c0.1,0.1,0.1,0.2,0,0.3
				c0,0.1-0.1,0.1-0.2,0.1c0,0-0.1,0-0.1,0l-0.2-0.1C79,14.4,79,14.3,79.1,14.2z M78.3,13.6c0.1-0.1,0.2-0.1,0.3,0l0.2,0.1
				c0.1,0.1,0.1,0.2,0,0.3c0,0.1-0.1,0.1-0.2,0.1c0,0-0.1,0-0.1,0l-0.2-0.1C78.2,13.8,78.2,13.7,78.3,13.6z M77.5,13
				c0.1-0.1,0.2-0.1,0.3,0l0.2,0.1c0.1,0.1,0.1,0.2,0,0.3c0,0.1-0.1,0.1-0.2,0.1c0,0-0.1,0-0.1,0l-0.2-0.1
				C77.4,13.2,77.4,13.1,77.5,13z M76.6,12.4c0.1-0.1,0.2-0.1,0.3,0l0.2,0.1c0.1,0.1,0.1,0.2,0,0.3c0,0.1-0.1,0.1-0.2,0.1
				c0,0-0.1,0-0.1,0l-0.2-0.1C76.6,12.6,76.6,12.5,76.6,12.4z M75.8,11.8c0.1-0.1,0.2-0.1,0.3-0.1l0.2,0.1c0.1,0.1,0.1,0.2,0.1,0.3
				c0,0.1-0.1,0.1-0.2,0.1c0,0-0.1,0-0.1,0l-0.2-0.1C75.8,12,75.7,11.9,75.8,11.8z M74.9,11.3c0.1-0.1,0.2-0.1,0.3-0.1l0.2,0.1
				c0.1,0.1,0.1,0.2,0.1,0.3c0,0.1-0.1,0.1-0.2,0.1c0,0,0,0-0.1,0L75,11.5C74.9,11.5,74.9,11.4,74.9,11.3z M74.1,10.7
				c0.1-0.1,0.2-0.1,0.3-0.1l0.2,0.1c0.1,0.1,0.1,0.2,0.1,0.3c0,0.1-0.1,0.1-0.2,0.1c0,0,0,0-0.1,0L74.1,11C74,11,74,10.8,74.1,10.7
				z M73.2,10.3c0.1-0.1,0.2-0.1,0.3-0.1l0.2,0.1c0.1,0.1,0.1,0.2,0.1,0.3c0,0.1-0.1,0.1-0.2,0.1c0,0,0,0-0.1,0l-0.2-0.1
				C73.2,10.5,73.1,10.4,73.2,10.3z M72.3,9.8c0-0.1,0.2-0.1,0.3-0.1l0.2,0.1c0.1,0,0.1,0.2,0.1,0.3c0,0.1-0.1,0.1-0.2,0.1
				c0,0,0,0-0.1,0l-0.2-0.1C72.3,10,72.2,9.9,72.3,9.8z M71.4,9.4c0-0.1,0.2-0.1,0.3-0.1l0.2,0.1c0.1,0,0.1,0.2,0.1,0.3
				c0,0.1-0.1,0.1-0.2,0.1c0,0,0,0-0.1,0l-0.2-0.1C71.3,9.6,71.3,9.5,71.4,9.4z M70.4,9c0-0.1,0.2-0.2,0.3-0.1l0.2,0.1
				C71,9,71,9.1,71,9.2c0,0.1-0.1,0.1-0.2,0.1c0,0,0,0,0,0l-0.2-0.1C70.4,9.2,70.4,9.1,70.4,9z M69.7,8.5l0.2,0.1
				c0.1,0,0.2,0.2,0.1,0.3c0,0.1-0.1,0.1-0.2,0.1c0,0,0,0,0,0l-0.2-0.1c-0.1,0-0.2-0.2-0.1-0.3C69.5,8.5,69.6,8.4,69.7,8.5z
				 M68.8,8.1L69,8.2c0.1,0,0.2,0.2,0.1,0.3c0,0.1-0.1,0.1-0.2,0.1c0,0,0,0,0,0l-0.2-0.1c-0.1,0-0.2-0.2-0.1-0.3
				C68.6,8.1,68.7,8.1,68.8,8.1z M67.8,7.8L68,7.8c0.1,0,0.2,0.1,0.1,0.3c0,0.1-0.1,0.2-0.2,0.1c0,0,0,0,0,0l-0.2-0.1
				c-0.1,0-0.2-0.1-0.1-0.3C67.6,7.8,67.7,7.8,67.8,7.8z M66.8,7.5L67,7.5c0.1,0,0.2,0.1,0.1,0.3c0,0.1-0.1,0.2-0.2,0.1c0,0,0,0,0,0
				l-0.2-0.1c-0.1,0-0.2-0.1-0.1-0.3C66.6,7.5,66.7,7.5,66.8,7.5z M65.9,7.2l0.2,0.1c0.1,0,0.2,0.1,0.1,0.2c0,0.1-0.1,0.2-0.2,0.1
				c0,0,0,0,0,0l-0.2,0c-0.1,0-0.2-0.1-0.1-0.2C65.6,7.3,65.8,7.2,65.9,7.2z M64.9,7C64.9,7,64.9,7,64.9,7l0.2,0
				c0.1,0,0.2,0.1,0.2,0.2c0,0.1-0.1,0.2-0.2,0.2c0,0,0,0,0,0l-0.2,0c-0.1,0-0.2-0.1-0.2-0.2C64.7,7,64.8,7,64.9,7z M63.9,6.8
				C63.9,6.8,63.9,6.8,63.9,6.8l0.2,0c0.1,0,0.2,0.1,0.2,0.2c0,0.1-0.1,0.2-0.2,0.2l0,0l-0.2,0c-0.1,0-0.2-0.1-0.2-0.2
				C63.7,6.8,63.8,6.8,63.9,6.8z M62.9,6.6l0.2,0c0.1,0,0.2,0.1,0.2,0.2C63.2,7,63.1,7,63,7l-0.2,0c0,0,0,0,0,0
				c-0.1,0-0.2-0.1-0.2-0.2C62.7,6.7,62.8,6.6,62.9,6.6z M61.9,6.4l0.2,0c0.1,0,0.2,0.1,0.2,0.2c0,0.1-0.1,0.2-0.2,0.2l-0.2,0
				c0,0,0,0,0,0c-0.1,0-0.2-0.1-0.2-0.2C61.7,6.5,61.8,6.4,61.9,6.4z M60.9,6.3l0.2,0c0.1,0,0.2,0.1,0.2,0.2c0,0.1-0.1,0.2-0.2,0.2
				l-0.2,0c0,0,0,0,0,0c-0.1,0-0.2-0.1-0.2-0.2C60.6,6.4,60.7,6.3,60.9,6.3z M59.8,6.2l0.2,0c0.1,0,0.2,0.1,0.2,0.2
				c0,0.1-0.1,0.2-0.2,0.2l-0.2,0c0,0,0,0,0,0c-0.1,0-0.2-0.1-0.2-0.2C59.6,6.3,59.7,6.2,59.8,6.2z M58.8,6.2l0.2,0
				c0.1,0,0.2,0.1,0.2,0.2c0,0.1-0.1,0.2-0.2,0.2l-0.2,0c0,0,0,0,0,0c-0.1,0-0.2-0.1-0.2-0.2C58.6,6.3,58.7,6.2,58.8,6.2z M57.8,6.2
				l0.2,0c0.1,0,0.2,0.1,0.2,0.2c0,0.1-0.1,0.2-0.2,0.2l-0.2,0c0,0,0,0,0,0c-0.1,0-0.2-0.1-0.2-0.2C57.6,6.2,57.7,6.2,57.8,6.2z
				 M56.8,6.2l0.2,0c0.1,0,0.2,0.1,0.2,0.2c0,0.1-0.1,0.2-0.2,0.2l-0.2,0c0,0,0,0,0,0c-0.1,0-0.2-0.1-0.2-0.2
				C56.6,6.3,56.7,6.2,56.8,6.2z M55.8,6.2l0.2,0c0.1,0,0.2,0.1,0.2,0.2c0,0.1-0.1,0.2-0.2,0.2l-0.2,0c0,0,0,0,0,0
				c-0.1,0-0.2-0.1-0.2-0.2C55.6,6.3,55.7,6.2,55.8,6.2z M54.7,6.3l0.2,0c0.1,0,0.2,0.1,0.2,0.2c0,0.1-0.1,0.2-0.2,0.2l-0.2,0
				c0,0,0,0-0.1,0c-0.1,0-0.2-0.1-0.2-0.2C54.6,6.4,54.6,6.3,54.7,6.3z M53.7,6.4l0.2,0c0.1,0,0.2,0.1,0.2,0.2
				c0,0.1-0.1,0.2-0.2,0.2l-0.2,0c0,0,0,0-0.1,0c-0.1,0-0.2-0.1-0.2-0.2C53.5,6.5,53.6,6.4,53.7,6.4z M52.7,6.5l0.2,0
				c0.1,0,0.2,0.1,0.2,0.2c0,0.1-0.1,0.2-0.2,0.2l-0.2,0c0,0,0,0-0.1,0c-0.1,0-0.1-0.1-0.2-0.2C52.5,6.6,52.6,6.5,52.7,6.5z
				 M51.7,6.7l0.2,0c0.1,0,0.2,0.1,0.2,0.2C52.2,6.9,52.1,7,52,7l-0.2,0c0,0,0,0-0.1,0c-0.1,0-0.1-0.1-0.2-0.2
				C51.5,6.8,51.6,6.7,51.7,6.7z M50.7,6.8l0.2,0c0.1,0,0.2,0,0.2,0.2c0,0.1-0.1,0.2-0.2,0.2l-0.2,0c0,0-0.1,0-0.1,0
				c-0.1,0-0.1-0.1-0.2-0.2C50.5,7,50.6,6.9,50.7,6.8z M49.7,7.1l0.2,0c0.1,0,0.2,0,0.2,0.2c0,0.1,0,0.2-0.2,0.2l-0.2,0
				c0,0-0.1,0-0.1,0c-0.1,0-0.1-0.1-0.2-0.2C49.5,7.2,49.6,7.1,49.7,7.1z M48.7,7.3l0.2-0.1c0.1,0,0.2,0,0.2,0.1
				c0,0.1,0,0.2-0.1,0.2l-0.2,0.1c0,0-0.1,0-0.1,0c-0.1,0-0.1-0.1-0.2-0.1C48.6,7.5,48.6,7.3,48.7,7.3z M47.8,7.6L48,7.5
				c0.1,0,0.2,0,0.3,0.1c0,0.1,0,0.2-0.1,0.3L47.9,8c0,0-0.1,0-0.1,0c-0.1,0-0.1-0.1-0.2-0.1C47.6,7.7,47.7,7.6,47.8,7.6z M46.8,7.9
				L47,7.8c0.1,0,0.2,0,0.3,0.1c0,0.1,0,0.2-0.1,0.3l-0.2,0.1c0,0-0.1,0-0.1,0c-0.1,0-0.1-0.1-0.2-0.1C46.6,8.1,46.7,7.9,46.8,7.9z
				 M45.8,8.2L46,8.2c0.1,0,0.2,0,0.3,0.1c0,0.1,0,0.2-0.1,0.3L46,8.6c0,0-0.1,0-0.1,0c-0.1,0-0.1-0.1-0.2-0.1
				C45.7,8.4,45.7,8.3,45.8,8.2z M44.9,8.6l0.2-0.1c0.1,0,0.2,0,0.3,0.1c0,0.1,0,0.2-0.1,0.3L45,9c0,0-0.1,0-0.1,0
				c-0.1,0-0.1-0.1-0.1-0.1C44.7,8.8,44.8,8.6,44.9,8.6z M43.9,9l0.2-0.1c0.1,0,0.2,0,0.3,0.1c0,0.1,0,0.2-0.1,0.3l-0.2,0.1
				c0,0-0.1,0-0.1,0c-0.1,0-0.1-0.1-0.1-0.1C43.8,9.2,43.8,9,43.9,9z M43,9.4l0.2-0.1c0.1,0,0.2,0,0.3,0.1c0,0.1,0,0.2-0.1,0.3
				l-0.2,0.1c0,0-0.1,0-0.1,0c-0.1,0-0.1-0.1-0.1-0.1C42.9,9.6,42.9,9.5,43,9.4z M42.1,9.9l0.2-0.1c0.1-0.1,0.2,0,0.3,0.1
				c0.1,0.1,0,0.2-0.1,0.3l-0.2,0.1c0,0-0.1,0-0.1,0c-0.1,0-0.1,0-0.1-0.1C42,10,42,9.9,42.1,9.9z M41.2,10.4l0.2-0.1
				c0.1-0.1,0.2,0,0.3,0.1c0.1,0.1,0,0.2-0.1,0.3l-0.2,0.1c0,0-0.1,0-0.1,0c-0.1,0-0.1,0-0.1-0.1C41.1,10.5,41.1,10.4,41.2,10.4z
				 M40.3,10.9l0.2-0.1c0.1-0.1,0.2,0,0.3,0.1c0.1,0.1,0,0.2-0.1,0.3l-0.2,0.1c0,0-0.1,0-0.1,0c-0.1,0-0.1,0-0.1-0.1
				C40.2,11,40.2,10.9,40.3,10.9z M39.5,11.4l0.2-0.1c0.1-0.1,0.2,0,0.3,0.1c0.1,0.1,0,0.2-0.1,0.3l-0.2,0.1c0,0-0.1,0-0.1,0
				c-0.1,0-0.1,0-0.1-0.1C39.3,11.6,39.4,11.5,39.5,11.4z M38.6,12l0.2-0.1c0.1-0.1,0.2,0,0.3,0.1c0.1,0.1,0,0.2-0.1,0.3l-0.2,0.1
				c0,0-0.1,0-0.2,0c-0.1,0-0.1,0-0.1-0.1C38.5,12.1,38.5,12,38.6,12z M37.8,12.5l0.2-0.1c0.1-0.1,0.2,0,0.3,0c0.1,0.1,0,0.2,0,0.3
				L38,12.9c0,0-0.1,0-0.2,0c-0.1,0-0.1,0-0.1-0.1C37.7,12.7,37.7,12.6,37.8,12.5z M37,13.1l0.2-0.1c0.1-0.1,0.2,0,0.3,0
				c0.1,0.1,0,0.2,0,0.3l-0.2,0.1c0,0-0.1,0-0.2,0c0,0-0.1,0-0.1-0.1C36.8,13.3,36.9,13.2,37,13.1z M36.2,13.8l0.2-0.1
				c0.1-0.1,0.2-0.1,0.3,0c0.1,0.1,0.1,0.2,0,0.3l-0.2,0.1c0,0-0.1,0.1-0.2,0c0,0-0.1,0-0.1-0.1C36.1,14,36.1,13.8,36.2,13.8z
				 M35.4,14.4l0.2-0.1c0.1-0.1,0.2-0.1,0.3,0c0.1,0.1,0.1,0.2,0,0.3l-0.2,0.1c0,0-0.1,0.1-0.2,0c0,0-0.1,0-0.1-0.1
				C35.3,14.6,35.3,14.5,35.4,14.4z M34.6,15.1l0.1-0.1c0.1-0.1,0.2-0.1,0.3,0c0.1,0.1,0.1,0.2,0,0.3l-0.1,0.1c0,0-0.1,0.1-0.2,0.1
				c0,0-0.1,0-0.1-0.1C34.5,15.3,34.5,15.2,34.6,15.1z M33.9,15.8l0.1-0.1c0.1-0.1,0.2-0.1,0.3,0c0.1,0.1,0.1,0.2,0,0.3l-0.1,0.1
				c0,0-0.1,0.1-0.2,0.1c0,0-0.1,0-0.1-0.1C33.8,16,33.8,15.9,33.9,15.8z M33.2,16.5l0.1-0.1c0.1-0.1,0.2-0.1,0.3,0
				c0.1,0.1,0.1,0.2,0,0.3l-0.1,0.1c0,0.1-0.1,0.1-0.2,0.1c0,0-0.1,0-0.1-0.1C33.1,16.8,33.1,16.6,33.2,16.5z M32.5,17.3l0.1-0.2
				c0.1-0.1,0.2-0.1,0.3,0c0.1,0.1,0.1,0.2,0,0.3l-0.1,0.1c0,0.1-0.1,0.1-0.2,0.1c0,0-0.1,0-0.1,0C32.4,17.5,32.4,17.4,32.5,17.3z
				 M31.8,18.1l0.1-0.2c0.1-0.1,0.2-0.1,0.3,0c0.1,0.1,0.1,0.2,0,0.3l-0.1,0.2c0,0.1-0.1,0.1-0.2,0.1c0,0-0.1,0-0.1,0
				C31.7,18.3,31.7,18.1,31.8,18.1z M31.1,18.8l0.1-0.2c0.1-0.1,0.2-0.1,0.3,0c0.1,0.1,0.1,0.2,0,0.3l-0.1,0.2
				c0,0.1-0.1,0.1-0.2,0.1c0,0-0.1,0-0.1,0C31.1,19.1,31.1,18.9,31.1,18.8z M30.5,19.7l0.1-0.2c0.1-0.1,0.2-0.1,0.3,0
				c0.1,0.1,0.1,0.2,0,0.3l-0.1,0.2c0,0.1-0.1,0.1-0.2,0.1c0,0-0.1,0-0.1,0C30.5,19.9,30.4,19.7,30.5,19.7z M29.9,20.5l0.1-0.2
				c0.1-0.1,0.2-0.1,0.3,0c0.1,0.1,0.1,0.2,0,0.3l-0.1,0.2c0,0.1-0.1,0.1-0.2,0.1c0,0-0.1,0-0.1,0C29.9,20.7,29.8,20.6,29.9,20.5z
				 M29.3,21.3l0.1-0.2c0.1-0.1,0.2-0.1,0.3-0.1c0.1,0.1,0.1,0.2,0.1,0.3l-0.1,0.2c0,0.1-0.1,0.1-0.2,0.1c0,0,0,0-0.1,0
				C29.3,21.5,29.3,21.4,29.3,21.3z M28.8,22.2l0.1-0.2c0.1-0.1,0.2-0.1,0.3-0.1c0.1,0.1,0.1,0.2,0.1,0.3l-0.1,0.2
				c0,0.1-0.1,0.1-0.2,0.1c0,0,0,0-0.1,0C28.8,22.4,28.7,22.3,28.8,22.2z M28.3,23.1l0.1-0.2c0.1-0.1,0.2-0.1,0.3-0.1
				c0.1,0.1,0.1,0.2,0.1,0.3l-0.1,0.2c0,0.1-0.1,0.1-0.2,0.1c0,0,0,0-0.1,0C28.2,23.3,28.2,23.2,28.3,23.1z M27.8,24l0.1-0.2
				c0.1-0.1,0.2-0.1,0.3-0.1c0.1,0.1,0.1,0.2,0.1,0.3l-0.1,0.2c0,0.1-0.1,0.1-0.2,0.1c0,0,0,0-0.1,0C27.8,24.2,27.7,24.1,27.8,24z
				 M27.3,24.9l0.1-0.2c0.1-0.1,0.2-0.1,0.3-0.1c0.1,0,0.1,0.2,0.1,0.3L27.7,25c0,0.1-0.1,0.1-0.2,0.1c0,0,0,0-0.1,0
				C27.3,25.1,27.3,25,27.3,24.9z M26.9,25.8l0.1-0.2c0-0.1,0.2-0.1,0.3-0.1c0.1,0,0.1,0.2,0.1,0.3L27.2,26c0,0.1-0.1,0.1-0.2,0.1
				c0,0,0,0,0,0C26.9,26,26.8,25.9,26.9,25.8z M26.5,26.7l0.1-0.2c0-0.1,0.2-0.1,0.3-0.1c0.1,0,0.1,0.2,0.1,0.3l-0.1,0.2
				c0,0.1-0.1,0.1-0.2,0.1c0,0,0,0,0,0C26.5,26.9,26.4,26.8,26.5,26.7z M26.1,27.5c0-0.1,0.2-0.2,0.3-0.1c0.1,0,0.2,0.2,0.1,0.3
				l-0.1,0.2c0,0.1-0.1,0.1-0.2,0.1c0,0,0,0,0,0c-0.1,0-0.2-0.2-0.1-0.3L26.1,27.5z M25.8,28.4c0-0.1,0.2-0.2,0.3-0.1
				c0.1,0,0.2,0.2,0.1,0.3l-0.1,0.2c0,0.1-0.1,0.2-0.2,0.1c0,0,0,0,0,0c-0.1,0-0.2-0.2-0.1-0.3L25.8,28.4z M25.5,29.4
				c0-0.1,0.1-0.2,0.3-0.1c0.1,0,0.2,0.1,0.1,0.3l-0.1,0.2c0,0.1-0.1,0.2-0.2,0.1c0,0,0,0,0,0c-0.1,0-0.2-0.1-0.1-0.3L25.5,29.4z
				 M25.2,30.4c0-0.1,0.1-0.2,0.2-0.1c0.1,0,0.2,0.1,0.1,0.3l-0.1,0.2c0,0.1-0.1,0.2-0.2,0.1c0,0,0,0,0,0c-0.1,0-0.2-0.1-0.1-0.3
				L25.2,30.4z M24.9,31.4c0-0.1,0.1-0.2,0.2-0.1c0.1,0,0.2,0.1,0.1,0.2l-0.1,0.2c0,0.1-0.1,0.2-0.2,0.1c0,0,0,0,0,0
				c-0.1,0-0.2-0.1-0.1-0.2L24.9,31.4z M24.6,32.3c0-0.1,0.1-0.2,0.2-0.2c0.1,0,0.2,0.1,0.2,0.2l0,0.2c0,0.1-0.1,0.2-0.2,0.2
				c0,0,0,0,0,0c-0.1,0-0.2-0.1-0.2-0.2L24.6,32.3z M24.4,33.3c0-0.1,0.1-0.2,0.2-0.2c0,0,0,0,0,0c0.1,0,0.2,0.1,0.2,0.2l0,0.2
				c0,0.1-0.1,0.2-0.2,0.2v0c-0.1,0-0.2-0.1-0.2-0.2L24.4,33.3z M24.3,34.3c0-0.1,0.1-0.2,0.2-0.2c0,0,0,0,0,0
				c0.1,0,0.2,0.1,0.2,0.2l0,0.2c0,0.1-0.1,0.2-0.2,0.2c0,0,0,0,0,0c-0.1,0-0.2-0.1-0.2-0.2L24.3,34.3z M24.1,35.3
				c0-0.1,0.1-0.2,0.2-0.2c0.1,0,0.2,0.1,0.2,0.2l0,0.2c0,0.1-0.1,0.2-0.2,0.2c0,0,0,0,0,0c-0.1,0-0.2-0.1-0.2-0.2L24.1,35.3z
				 M24,36.6l0-0.2c0-0.1,0.1-0.2,0.2-0.2c0.1,0,0.2,0.1,0.2,0.2l0,0.2c0,0.1-0.1,0.2-0.2,0.2c0,0,0,0,0,0
				C24,36.8,23.9,36.7,24,36.6z M23.9,37.6l0-0.2c0-0.1,0.1-0.2,0.2-0.2c0.1,0,0.2,0.1,0.2,0.2l0,0.2c0,0.1-0.1,0.2-0.2,0.2
				c0,0,0,0,0,0C23.9,37.8,23.9,37.7,23.9,37.6z M23.8,38.6l0-0.2c0-0.1,0.1-0.2,0.2-0.2c0.1,0,0.2,0.1,0.2,0.2l0,0.2
				c0,0.1-0.1,0.2-0.2,0.2c0,0,0,0,0,0C23.9,38.8,23.8,38.7,23.8,38.6z M23.8,39.6l0-0.2c0-0.1,0.1-0.2,0.2-0.2
				c0.1,0,0.2,0.1,0.2,0.2l0,0.2c0,0.1-0.1,0.2-0.2,0.2c0,0,0,0,0,0C23.9,39.8,23.8,39.7,23.8,39.6z M23.8,40.6l0-0.2
				c0-0.1,0.1-0.2,0.2-0.2c0.1,0,0.2,0.1,0.2,0.2l0,0.2c0,0.1-0.1,0.2-0.2,0.2c0,0,0,0,0,0C23.9,40.8,23.8,40.7,23.8,40.6z
				 M23.8,41.7l0-0.2c0-0.1,0.1-0.2,0.2-0.2c0.1,0,0.2,0.1,0.2,0.2l0,0.2c0,0.1-0.1,0.2-0.2,0.2c0,0,0,0,0,0
				C23.9,41.8,23.8,41.7,23.8,41.7z M23.9,42.7l0-0.2c0-0.1,0.1-0.2,0.2-0.2c0.1,0,0.2,0.1,0.2,0.2l0,0.2c0,0.1-0.1,0.2-0.2,0.2
				c0,0,0,0-0.1,0C24,42.8,23.9,42.8,23.9,42.7z M24,43.7l0-0.2c0-0.1,0.1-0.2,0.2-0.2c0.1,0,0.2,0.1,0.2,0.2l0,0.2
				c0,0.1-0.1,0.2-0.2,0.2c0,0,0,0-0.1,0C24.1,43.8,24,43.8,24,43.7z M24.3,44.9c-0.1,0-0.2-0.1-0.2-0.2l0-0.2
				c0-0.1,0.1-0.2,0.2-0.2c0.1,0,0.2,0.1,0.2,0.2l0,0.2C24.6,44.7,24.5,44.9,24.3,44.9C24.4,44.9,24.3,44.9,24.3,44.9z M24.5,45.9
				c-0.1,0-0.1-0.1-0.2-0.2l0-0.2c0-0.1,0.1-0.2,0.2-0.2c0.1,0,0.2,0.1,0.2,0.2l0,0.2C24.7,45.7,24.7,45.8,24.5,45.9
				C24.5,45.9,24.5,45.9,24.5,45.9z M24.7,46.9c-0.1,0-0.1-0.1-0.2-0.2l0-0.2c0-0.1,0-0.2,0.2-0.2c0.1,0,0.2,0,0.2,0.2l0,0.2
				C24.9,46.7,24.8,46.8,24.7,46.9C24.7,46.9,24.7,46.9,24.7,46.9z M24.9,47.8c-0.1,0-0.1-0.1-0.2-0.2l0-0.2c0-0.1,0-0.2,0.2-0.2
				c0.1,0,0.2,0,0.2,0.2l0,0.2C25.1,47.7,25.1,47.8,24.9,47.8C24.9,47.9,24.9,47.9,24.9,47.8z M25.2,48.8
				C25.2,48.8,25.2,48.8,25.2,48.8c-0.2,0-0.2-0.1-0.2-0.1l-0.1-0.2c0-0.1,0-0.2,0.1-0.2c0.1,0,0.2,0,0.2,0.1l0.1,0.2
				C25.4,48.7,25.3,48.8,25.2,48.8z M25.5,49.8C25.5,49.8,25.4,49.8,25.5,49.8c-0.2,0-0.2-0.1-0.3-0.1l-0.1-0.2c0-0.1,0-0.2,0.1-0.3
				c0.1,0,0.2,0,0.3,0.1l0.1,0.2C25.7,49.6,25.6,49.8,25.5,49.8z M25.8,50.7c0,0-0.1,0-0.1,0c-0.1,0-0.1-0.1-0.2-0.1l-0.1-0.2
				c0-0.1,0-0.2,0.1-0.3c0.1,0,0.2,0,0.3,0.1l0.1,0.2C26,50.6,25.9,50.7,25.8,50.7z M26.2,51.7c0,0-0.1,0-0.1,0
				c-0.1,0-0.1-0.1-0.2-0.1l-0.1-0.2c0-0.1,0-0.2,0.1-0.3c0.1,0,0.2,0,0.3,0.1l0.1,0.2C26.3,51.5,26.3,51.7,26.2,51.7z M26.5,52.6
				c0,0-0.1,0-0.1,0c-0.1,0-0.1-0.1-0.2-0.1l-0.1-0.2c0-0.1,0-0.2,0.1-0.3c0.1,0,0.2,0,0.3,0.1l0.1,0.2
				C26.7,52.5,26.6,52.6,26.5,52.6z M26.9,53.6c0,0-0.1,0-0.1,0c-0.1,0-0.1-0.1-0.1-0.1l-0.1-0.2c0-0.1,0-0.2,0.1-0.3
				c0.1,0,0.2,0,0.3,0.1l0.1,0.2C27.1,53.4,27,53.5,26.9,53.6z M27.4,54.5c0,0-0.1,0-0.1,0c-0.1,0-0.1-0.1-0.1-0.1L27,54.2
				c0-0.1,0-0.2,0.1-0.3c0.1,0,0.2,0,0.3,0.1l0.1,0.2C27.5,54.3,27.5,54.4,27.4,54.5z M27.8,55.4c0,0-0.1,0-0.1,0
				c-0.1,0-0.1,0-0.1-0.1l-0.1-0.2c-0.1-0.1,0-0.2,0.1-0.3c0.1-0.1,0.2,0,0.3,0.1l0.1,0.2C28,55.2,27.9,55.3,27.8,55.4z M28.3,56.3
				c0,0-0.1,0-0.1,0c-0.1,0-0.1,0-0.1-0.1L27.9,56c-0.1-0.1,0-0.2,0.1-0.3c0.1-0.1,0.2,0,0.3,0.1l0.1,0.2
				C28.4,56.1,28.4,56.2,28.3,56.3z M28.8,57.1c0,0-0.1,0-0.1,0c-0.1,0-0.1,0-0.1-0.1l-0.1-0.2c-0.1-0.1,0-0.2,0.1-0.3
				c0.1-0.1,0.2,0,0.3,0.1l0.1,0.2C29,57,28.9,57.1,28.8,57.1z M29.4,58c0,0-0.1,0-0.1,0c-0.1,0-0.1,0-0.1-0.1L29,57.8
				c-0.1-0.1,0-0.2,0.1-0.3c0.1-0.1,0.2,0,0.3,0.1l0.1,0.2C29.5,57.8,29.5,57.9,29.4,58z M29.9,58.9c0,0-0.1,0-0.1,0
				c-0.1,0-0.1,0-0.1-0.1l-0.1-0.2c-0.1-0.1,0-0.2,0.1-0.3c0.1-0.1,0.2,0,0.3,0.1l0.1,0.2C30,58.7,30,58.8,29.9,58.9z M30.5,59.7
				c0,0-0.1,0-0.2,0c-0.1,0-0.1,0-0.1-0.1l-0.1-0.2c-0.1-0.1,0-0.2,0-0.3c0.1-0.1,0.2,0,0.3,0l0.1,0.2
				C30.6,59.5,30.6,59.6,30.5,59.7z M31.1,60.5c0,0-0.1,0.1-0.2,0c0,0-0.1,0-0.1-0.1l-0.1-0.2c-0.1-0.1-0.1-0.2,0-0.3
				c0.1-0.1,0.2-0.1,0.3,0l0.1,0.2C31.2,60.3,31.2,60.4,31.1,60.5z M31.8,61.3c0,0-0.1,0.1-0.2,0c0,0-0.1,0-0.1-0.1l-0.1-0.2
				c-0.1-0.1-0.1-0.2,0-0.3c0.1-0.1,0.2-0.1,0.3,0l0.1,0.2C31.9,61.1,31.8,61.2,31.8,61.3z M32.4,62c0,0-0.1,0.1-0.2,0
				c0,0-0.1,0-0.1-0.1L32,61.9c-0.1-0.1-0.1-0.2,0-0.3c0.1-0.1,0.2-0.1,0.3,0l0.1,0.2C32.5,61.8,32.5,62,32.4,62z M33.1,62.8
				c0,0-0.1,0.1-0.2,0.1c0,0-0.1,0-0.1-0.1l-0.1-0.1c-0.1-0.1-0.1-0.2,0-0.3c0.1-0.1,0.2-0.1,0.3,0l0.1,0.1
				C33.2,62.6,33.2,62.7,33.1,62.8z M33.8,63.5c0,0-0.1,0.1-0.2,0.1c0,0-0.1,0-0.1-0.1l-0.1-0.1c-0.1-0.1-0.1-0.2,0-0.3
				c0.1-0.1,0.2-0.1,0.3,0l0.1,0.1C33.9,63.3,33.9,63.4,33.8,63.5z M34.5,64.2c0,0.1-0.1,0.1-0.2,0.1c0,0-0.1,0-0.1-0.1l-0.1-0.1
				c-0.1-0.1-0.1-0.2,0-0.3c0.1-0.1,0.2-0.1,0.3,0l0.1,0.1C34.6,64,34.6,64.1,34.5,64.2z M35.3,64.9c0,0.1-0.1,0.1-0.2,0.1
				c0,0-0.1,0-0.1,0l-0.2-0.1c-0.1-0.1-0.1-0.2,0-0.3c0.1-0.1,0.2-0.1,0.3,0l0.1,0.1C35.3,64.7,35.4,64.8,35.3,64.9z M36.1,65.6
				c0,0.1-0.1,0.1-0.2,0.1c0,0-0.1,0-0.1,0l-0.2-0.1c-0.1-0.1-0.1-0.2,0-0.3c0.1-0.1,0.2-0.1,0.3,0l0.2,0.1
				C36.1,65.4,36.1,65.5,36.1,65.6z M36.8,66.2c0,0.1-0.1,0.1-0.2,0.1c0,0-0.1,0-0.1,0l-0.2-0.1c-0.1-0.1-0.1-0.2,0-0.3
				c0.1-0.1,0.2-0.1,0.3,0l0.2,0.1C36.9,66,36.9,66.1,36.8,66.2z M37.6,66.8c0,0.1-0.1,0.1-0.2,0.1c0,0-0.1,0-0.1,0l-0.2-0.1
				c-0.1-0.1-0.1-0.2,0-0.3c0.1-0.1,0.2-0.1,0.3,0l0.2,0.1C37.7,66.6,37.7,66.7,37.6,66.8z M38.5,67.4c0,0.1-0.1,0.1-0.2,0.1
				c0,0-0.1,0-0.1,0L38,67.3c-0.1-0.1-0.1-0.2,0-0.3c0.1-0.1,0.2-0.1,0.3,0l0.2,0.1C38.5,67.2,38.5,67.3,38.5,67.4z M39.3,68
				c0,0.1-0.1,0.1-0.2,0.1c0,0-0.1,0-0.1,0l-0.2-0.1c-0.1-0.1-0.1-0.2-0.1-0.3c0.1-0.1,0.2-0.1,0.3-0.1l0.2,0.1
				C39.4,67.8,39.4,67.9,39.3,68z M40.2,68.5c0,0.1-0.1,0.1-0.2,0.1c0,0,0,0-0.1,0l-0.2-0.1c-0.1-0.1-0.1-0.2-0.1-0.3
				c0.1-0.1,0.2-0.1,0.3-0.1l0.2,0.1C40.2,68.3,40.2,68.4,40.2,68.5z M41.1,69c0,0.1-0.1,0.1-0.2,0.1c0,0,0,0-0.1,0L40.6,69
				c-0.1-0.1-0.1-0.2-0.1-0.3c0.1-0.1,0.2-0.1,0.3-0.1l0.2,0.1C41.1,68.8,41.1,68.9,41.1,69z M42,69.5c0,0.1-0.1,0.1-0.2,0.1
				c0,0,0,0-0.1,0l-0.2-0.1c-0.1-0.1-0.1-0.2-0.1-0.3c0.1-0.1,0.2-0.1,0.3-0.1l0.2,0.1C42,69.3,42,69.4,42,69.5z M42.9,70
				c0,0.1-0.1,0.1-0.2,0.1c0,0,0,0-0.1,0L42.4,70c-0.1,0-0.1-0.2-0.1-0.3c0-0.1,0.2-0.1,0.3-0.1l0.2,0.1
				C42.9,69.7,42.9,69.9,42.9,70z M43.8,70.4c0,0.1-0.1,0.1-0.2,0.1c0,0,0,0,0,0l-0.2-0.1c-0.1,0-0.1-0.2-0.1-0.3
				c0-0.1,0.2-0.1,0.3-0.1l0.2,0.1C43.8,70.2,43.8,70.3,43.8,70.4z M44.7,70.8c0,0.1-0.1,0.1-0.2,0.1c0,0,0,0,0,0l-0.2-0.1
				c-0.1,0-0.2-0.2-0.1-0.3c0-0.1,0.2-0.2,0.3-0.1l0.2,0.1C44.7,70.6,44.8,70.7,44.7,70.8z M45.4,71.3
				C45.4,71.3,45.4,71.3,45.4,71.3l-0.2-0.1c-0.1,0-0.2-0.2-0.1-0.3c0-0.1,0.2-0.2,0.3-0.1l0.2,0.1c0.1,0,0.2,0.2,0.1,0.3
				C45.6,71.3,45.5,71.3,45.4,71.3z M46.4,71.6C46.4,71.6,46.4,71.6,46.4,71.6l-0.2-0.1c-0.1,0-0.2-0.2-0.1-0.3
				c0-0.1,0.2-0.2,0.3-0.1l0.2,0.1c0.1,0,0.2,0.2,0.1,0.3C46.6,71.6,46.5,71.7,46.4,71.6z M47.3,72C47.3,72,47.3,72,47.3,72
				l-0.2-0.1c-0.1,0-0.2-0.1-0.1-0.3c0-0.1,0.2-0.2,0.3-0.1l0.2,0.1c0.1,0,0.2,0.1,0.1,0.3C47.5,71.9,47.4,72,47.3,72z M48.3,72.3
				C48.3,72.3,48.3,72.3,48.3,72.3l-0.2-0.1c-0.1,0-0.2-0.1-0.1-0.3c0-0.1,0.1-0.2,0.3-0.1l0.2,0.1c0.1,0,0.2,0.1,0.1,0.2
				C48.5,72.2,48.4,72.3,48.3,72.3z M49.3,72.5C49.3,72.5,49.3,72.5,49.3,72.5l-0.2-0.1c-0.1,0-0.2-0.1-0.1-0.2
				c0-0.1,0.1-0.2,0.2-0.1l0.2,0c0.1,0,0.2,0.1,0.1,0.2C49.5,72.5,49.4,72.5,49.3,72.5z M50.3,72.7C50.3,72.7,50.3,72.7,50.3,72.7
				l-0.2,0c-0.1,0-0.2-0.1-0.2-0.2c0-0.1,0.1-0.2,0.2-0.2l0.2,0c0.1,0,0.2,0.1,0.2,0.2C50.5,72.7,50.4,72.8,50.3,72.7z M51.3,72.9
				l-0.2,0c-0.1,0-0.2-0.1-0.2-0.2c0-0.1,0.1-0.2,0.2-0.2c0,0,0,0,0,0l0.2,0c0.1,0,0.2,0.1,0.2,0.2C51.5,72.9,51.4,73,51.3,72.9z
				 M52.3,73.1l-0.2,0c0,0,0,0,0,0c-0.1,0-0.2-0.1-0.2-0.2c0-0.1,0.1-0.2,0.2-0.2l0.2,0c0,0,0,0,0,0c0.1,0,0.2,0.1,0.2,0.2
				C52.5,73.1,52.4,73.1,52.3,73.1z M53.3,73.3l-0.2,0c0,0,0,0,0,0c-0.1,0-0.2-0.1-0.2-0.2c0-0.1,0.1-0.2,0.2-0.2l0.2,0
				c0.1,0,0.2,0.1,0.2,0.2C53.5,73.2,53.4,73.3,53.3,73.3z M54.3,73.4l-0.2,0c0,0,0,0,0,0c-0.1,0-0.2-0.1-0.2-0.2
				c0-0.1,0.1-0.2,0.2-0.2l0.2,0c0.1,0,0.2,0.1,0.2,0.2C54.5,73.3,54.4,73.4,54.3,73.4z M55.3,73.5l-0.2,0c0,0,0,0,0,0
				c-0.1,0-0.2-0.1-0.2-0.2c0-0.1,0.1-0.2,0.2-0.2l0.2,0c0.1,0,0.2,0.1,0.2,0.2C55.5,73.4,55.4,73.5,55.3,73.5z M56.3,73.5l-0.2,0
				c0,0,0,0,0,0c-0.1,0-0.2-0.1-0.2-0.2c0-0.1,0.1-0.2,0.2-0.2l0.2,0c0.1,0,0.2,0.1,0.2,0.2C56.5,73.4,56.4,73.5,56.3,73.5z
				 M57.3,73.5l-0.2,0c0,0,0,0,0,0c-0.1,0-0.2-0.1-0.2-0.2c0-0.1,0.1-0.2,0.2-0.2l0.2,0c0.1,0,0.2,0.1,0.2,0.2
				C57.5,73.4,57.5,73.5,57.3,73.5z M58.4,73.5l-0.2,0c0,0,0,0,0,0c-0.1,0-0.2-0.1-0.2-0.2c0-0.1,0.1-0.2,0.2-0.2l0.2,0
				c0.1,0,0.2,0.1,0.2,0.2C58.6,73.4,58.5,73.5,58.4,73.5z M59.4,73.5l-0.2,0c0,0,0,0,0,0c-0.1,0-0.2-0.1-0.2-0.2
				c0-0.1,0.1-0.2,0.2-0.2l0.2,0c0.1,0,0.2,0.1,0.2,0.2C59.6,73.4,59.5,73.5,59.4,73.5z M60.4,73.4l-0.2,0c0,0,0,0-0.1,0
				c-0.1,0-0.2-0.1-0.2-0.2c0-0.1,0.1-0.2,0.2-0.2l0.2,0c0.1,0,0.2,0.1,0.2,0.2C60.6,73.3,60.5,73.4,60.4,73.4z M61.4,73.3
				c-0.1,0-0.1,0-0.2,0c0,0,0,0-0.1,0c-0.1,0-0.2-0.1-0.2-0.2c0-0.1,0.1-0.2,0.2-0.2c0.1,0,0.1,0,0.2,0c0.1,0,0.2,0.1,0.2,0.2
				C61.6,73.2,61.5,73.3,61.4,73.3z M62.4,73.2l-0.2,0c0,0,0,0-0.1,0c-0.1,0-0.1-0.1-0.2-0.2c0-0.1,0.1-0.2,0.2-0.2l0.2,0
				c0.1,0,0.2,0.1,0.2,0.2C62.6,73.1,62.5,73.2,62.4,73.2z M63.4,73l-0.2,0c0,0,0,0-0.1,0C63.1,73,63,73,63,72.9
				c0-0.1,0.1-0.2,0.2-0.2l0.2,0c0.1,0,0.2,0.1,0.2,0.2C63.6,72.9,63.5,73,63.4,73z M64.4,72.8l-0.2,0c0,0-0.1,0-0.1,0
				c-0.1,0-0.1-0.1-0.2-0.2c0-0.1,0-0.2,0.2-0.2l0.2,0c0.1,0,0.2,0,0.2,0.2C64.6,72.7,64.5,72.8,64.4,72.8z M65.4,72.6l-0.2,0
				c0,0-0.1,0-0.1,0c-0.1,0-0.1-0.1-0.2-0.2c0-0.1,0-0.2,0.1-0.2l0.2,0c0.1,0,0.2,0,0.2,0.1C65.6,72.4,65.5,72.6,65.4,72.6z
				 M66.4,72.3l-0.2,0.1c0,0-0.1,0-0.1,0c-0.1,0-0.1-0.1-0.2-0.1c0-0.1,0-0.2,0.1-0.2l0.2-0.1c0.1,0,0.2,0,0.2,0.1
				C66.6,72.2,66.5,72.3,66.4,72.3z M67.4,72l-0.2,0.1c0,0-0.1,0-0.1,0C67,72.1,67,72,66.9,72c0-0.1,0-0.2,0.1-0.3l0.2-0.1
				c0.1,0,0.2,0,0.3,0.1C67.5,71.9,67.5,72,67.4,72z M68.3,71.7l-0.2,0.1c0,0-0.1,0-0.1,0c-0.1,0-0.1-0.1-0.2-0.1
				c0-0.1,0-0.2,0.1-0.3l0.2-0.1c0.1,0,0.2,0,0.3,0.1C68.5,71.6,68.5,71.7,68.3,71.7z M69.3,71.4l-0.2,0.1c0,0-0.1,0-0.1,0
				c-0.1,0-0.1-0.1-0.2-0.1c0-0.1,0-0.2,0.1-0.3l0.2-0.1c0.1,0,0.2,0,0.3,0.1C69.5,71.2,69.4,71.3,69.3,71.4z M70.2,71l-0.2,0.1
				c0,0-0.1,0-0.1,0c-0.1,0-0.1-0.1-0.2-0.1c0-0.1,0-0.2,0.1-0.3l0.2-0.1c0.1,0,0.2,0,0.3,0.1C70.4,70.9,70.4,71,70.2,71z
				 M71.2,70.6L71,70.7c0,0-0.1,0-0.1,0c-0.1,0-0.1-0.1-0.1-0.1c0-0.1,0-0.2,0.1-0.3l0.2-0.1c0.1,0,0.2,0,0.3,0.1
				C71.3,70.4,71.3,70.6,71.2,70.6z M72.1,70.2l-0.2,0.1c0,0-0.1,0-0.1,0c-0.1,0-0.1-0.1-0.1-0.1c0-0.1,0-0.2,0.1-0.3l0.2-0.1
				c0.1,0,0.2,0,0.3,0.1C72.3,70,72.2,70.1,72.1,70.2z M73,69.7l-0.2,0.1c0,0-0.1,0-0.1,0c-0.1,0-0.1,0-0.1-0.1c0-0.1,0-0.2,0.1-0.3
				l0.2-0.1c0.1-0.1,0.2,0,0.3,0.1C73.2,69.6,73.1,69.7,73,69.7z M73.9,69.2l-0.2,0.1c0,0-0.1,0-0.1,0c-0.1,0-0.1,0-0.1-0.1
				c-0.1-0.1,0-0.2,0.1-0.3l0.2-0.1c0.1-0.1,0.2,0,0.3,0.1C74,69.1,74,69.2,73.9,69.2z M74.8,68.7l-0.2,0.1c0,0-0.1,0-0.1,0
				c-0.1,0-0.1,0-0.1-0.1c-0.1-0.1,0-0.2,0.1-0.3l0.2-0.1c0.1-0.1,0.2,0,0.3,0.1C74.9,68.6,74.9,68.7,74.8,68.7z M51.7,70.9
				C34.5,67.8,23.2,51.2,26.3,34C29.5,16.9,46.1,5.5,63.2,8.7c17.2,3.2,28.6,19.7,25.4,36.9C85.4,62.7,68.9,74.1,51.7,70.9z
				 M75.7,68.2l-0.2,0.1c0,0-0.1,0-0.1,0c-0.1,0-0.1,0-0.1-0.1c-0.1-0.1,0-0.2,0.1-0.3l0.2-0.1c0.1-0.1,0.2,0,0.3,0.1
				C75.8,68,75.8,68.1,75.7,68.2z M76.5,67.6l-0.2,0.1c0,0-0.1,0-0.1,0c-0.1,0-0.1,0-0.1-0.1c-0.1-0.1,0-0.2,0.1-0.3l0.2-0.1
				c0.1-0.1,0.2,0,0.3,0.1C76.6,67.4,76.6,67.6,76.5,67.6z M77.3,67l-0.2,0.1c0,0-0.1,0-0.2,0c0,0-0.1,0-0.1-0.1
				c-0.1-0.1,0-0.2,0-0.3l0.2-0.1c0.1-0.1,0.2,0,0.3,0C77.5,66.9,77.4,67,77.3,67z M78.2,66.4L78,66.6c0,0-0.1,0-0.2,0
				c0,0-0.1,0-0.1-0.1c-0.1-0.1-0.1-0.2,0-0.3l0.2-0.1c0.1-0.1,0.2-0.1,0.3,0C78.3,66.2,78.2,66.4,78.2,66.4z M79,65.8l-0.2,0.1
				c0,0-0.1,0.1-0.2,0c0,0-0.1,0-0.1-0.1c-0.1-0.1-0.1-0.2,0-0.3l0.2-0.1c0.1-0.1,0.2-0.1,0.3,0C79,65.6,79,65.7,79,65.8z
				 M79.7,65.1l-0.2,0.1c0,0-0.1,0.1-0.2,0c0,0-0.1,0-0.1-0.1c-0.1-0.1-0.1-0.2,0-0.3l0.2-0.1c0.1-0.1,0.2-0.1,0.3,0
				C79.8,64.9,79.8,65.1,79.7,65.1z M80.5,64.5l-0.1,0.1c0,0-0.1,0.1-0.2,0.1c0,0-0.1,0-0.1-0.1c-0.1-0.1-0.1-0.2,0-0.3l0.1-0.1
				c0.1-0.1,0.2-0.1,0.3,0C80.6,64.2,80.6,64.4,80.5,64.5z M81.2,63.7l-0.1,0.1c0,0-0.1,0.1-0.2,0.1c0,0-0.1,0-0.1-0.1
				c-0.1-0.1-0.1-0.2,0-0.3l0.1-0.1c0.1-0.1,0.2-0.1,0.3,0C81.3,63.5,81.3,63.7,81.2,63.7z M81.9,63l-0.1,0.1c0,0.1-0.1,0.1-0.2,0.1
				c0,0-0.1,0-0.1-0.1c-0.1-0.1-0.1-0.2,0-0.3l0.1-0.1c0.1-0.1,0.2-0.1,0.3,0C82,62.8,82,62.9,81.9,63z M82.6,62.3
				c0,0.1-0.1,0.1-0.1,0.2c0,0.1-0.1,0.1-0.2,0.1c0,0-0.1,0-0.1,0c-0.1-0.1-0.1-0.2,0-0.3c0,0,0.1-0.1,0.1-0.1
				c0.1-0.1,0.2-0.1,0.3,0C82.7,62.1,82.7,62.2,82.6,62.3z M83.3,61.5l-0.1,0.2c0,0.1-0.1,0.1-0.2,0.1c0,0-0.1,0-0.1,0
				c-0.1-0.1-0.1-0.2,0-0.3l0.1-0.2c0.1-0.1,0.2-0.1,0.3,0C83.4,61.3,83.4,61.4,83.3,61.5z M83.9,60.7l-0.1,0.2
				c0,0.1-0.1,0.1-0.2,0.1c0,0-0.1,0-0.1,0c-0.1-0.1-0.1-0.2,0-0.3l0.1-0.2c0.1-0.1,0.2-0.1,0.3,0C84,60.5,84,60.6,83.9,60.7z
				 M84.6,59.9l-0.1,0.2c0,0.1-0.1,0.1-0.2,0.1c0,0-0.1,0-0.1,0c-0.1-0.1-0.1-0.2,0-0.3l0.1-0.2c0.1-0.1,0.2-0.1,0.3,0
				C84.6,59.7,84.6,59.8,84.6,59.9z M85.2,59.1L85,59.2c0,0.1-0.1,0.1-0.2,0.1c0,0-0.1,0-0.1,0c-0.1-0.1-0.1-0.2-0.1-0.3l0.1-0.2
				c0.1-0.1,0.2-0.1,0.3-0.1C85.2,58.8,85.2,59,85.2,59.1z M85.7,58.2l-0.1,0.2c0,0.1-0.1,0.1-0.2,0.1c0,0-0.1,0-0.1,0
				c-0.1-0.1-0.1-0.2-0.1-0.3l0.1-0.2c0.1-0.1,0.2-0.1,0.3-0.1C85.8,58,85.8,58.1,85.7,58.2z M86.3,57.3l-0.1,0.2
				c0,0.1-0.1,0.1-0.2,0.1c0,0,0,0-0.1,0c-0.1-0.1-0.1-0.2-0.1-0.3l0.1-0.2c0.1-0.1,0.2-0.1,0.3-0.1C86.3,57.1,86.3,57.3,86.3,57.3z
				 M86.8,56.5l-0.1,0.2c0,0.1-0.1,0.1-0.2,0.1c0,0,0,0-0.1,0c-0.1-0.1-0.1-0.2-0.1-0.3l0.1-0.2c0.1-0.1,0.2-0.1,0.3-0.1
				C86.8,56.2,86.8,56.4,86.8,56.5z M87.3,55.6l-0.1,0.2c0,0.1-0.1,0.1-0.2,0.1c0,0,0,0-0.1,0c-0.1-0.1-0.1-0.2-0.1-0.3l0.1-0.2
				c0.1-0.1,0.2-0.1,0.3-0.1C87.3,55.3,87.3,55.5,87.3,55.6z M87.7,54.7l-0.1,0.2c0,0.1-0.1,0.1-0.2,0.1c0,0,0,0-0.1,0
				c-0.1,0-0.1-0.2-0.1-0.3l0.1-0.2c0-0.1,0.2-0.1,0.3-0.1C87.7,54.4,87.8,54.6,87.7,54.7z M88.2,53.7l-0.1,0.2
				c0,0.1-0.1,0.1-0.2,0.1c0,0,0,0,0,0c-0.1,0-0.1-0.2-0.1-0.3l0.1-0.2c0-0.1,0.2-0.1,0.3-0.1C88.2,53.5,88.2,53.6,88.2,53.7z
				 M88.6,52.8L88.5,53c0,0.1-0.1,0.1-0.2,0.1c0,0,0,0,0,0c-0.1,0-0.2-0.2-0.1-0.3l0.1-0.2c0-0.1,0.2-0.2,0.3-0.1
				C88.6,52.6,88.6,52.7,88.6,52.8z M88.9,52c0,0.1-0.1,0.1-0.2,0.1c0,0,0,0,0,0c-0.1,0-0.2-0.2-0.1-0.3l0.1-0.2
				c0-0.1,0.2-0.2,0.3-0.1c0.1,0,0.2,0.2,0.1,0.3L88.9,52z M89.2,51.1c0,0.1-0.1,0.1-0.2,0.1c0,0,0,0,0,0c-0.1,0-0.2-0.2-0.1-0.3
				l0.1-0.2c0-0.1,0.2-0.2,0.3-0.1c0.1,0,0.2,0.2,0.1,0.3L89.2,51.1z M89.6,50.1c0,0.1-0.1,0.2-0.2,0.1c0,0,0,0,0,0
				c-0.1,0-0.2-0.1-0.1-0.3l0.1-0.2c0-0.1,0.1-0.2,0.3-0.1c0.1,0,0.2,0.1,0.1,0.3L89.6,50.1z M89.9,49.1c0,0.1-0.1,0.2-0.2,0.1
				c0,0,0,0,0,0c-0.1,0-0.2-0.1-0.1-0.3l0.1-0.2c0-0.1,0.1-0.2,0.2-0.1c0.1,0,0.2,0.1,0.1,0.2L89.9,49.1z M90.1,48.2
				c0,0.1-0.1,0.2-0.2,0.1c0,0,0,0,0,0c-0.1,0-0.2-0.1-0.1-0.2l0-0.2c0-0.1,0.1-0.2,0.2-0.1c0.1,0,0.2,0.1,0.1,0.2L90.1,48.2z
				 M90.4,47.2c0,0.1-0.1,0.2-0.2,0.2c0,0,0,0,0,0c-0.1,0-0.2-0.1-0.2-0.2l0-0.2c0-0.1,0.1-0.2,0.2-0.2c0,0,0,0,0,0
				c0.1,0,0.2,0.1,0.2,0.2L90.4,47.2z M90.3,46.3L90.3,46.3c-0.1,0-0.2-0.1-0.2-0.2l0-0.2c0-0.1,0.1-0.2,0.2-0.2
				c0.1,0,0.2,0.1,0.2,0.2l0,0.2C90.5,46.3,90.4,46.4,90.3,46.3z"/>
			<path class="st2" d="M63.2,9c-17-3.1-33.3,8.1-36.5,25.1c-3.1,17,8.1,33.3,25.1,36.5c17,3.1,33.3-8.1,36.5-25.1
				C91.4,28.5,80.1,12.2,63.2,9z M75.5,21.2c0.8,0.2,1.4,1,1.3,1.8c-0.2,0.8-1,1.4-1.8,1.3c-0.8-0.2-1.4-1-1.3-1.8
				C73.9,21.6,74.7,21,75.5,21.2z M69.9,14.7C69.9,14.7,69.9,14.7,69.9,14.7c0.1-0.1,0.1-0.1,0.2-0.1l1.7,0.8c0,0,0.1,0,0.1,0.1
				c0,0,0,0.1,0,0.1l-0.3,0.6c0,0,0,0.1-0.1,0.1c0,0-0.1,0-0.1,0L71,16.1c-0.1,0-0.1,0-0.2,0.1l-1,2.1c0,0.1,0,0.1,0.1,0.2l1.3,0.6
				c0,0,0.1,0,0.1,0c0,0,0.1,0,0.1-0.1l1-2.1c0,0,0-0.1,0-0.1c0,0,0-0.1-0.1-0.1l-0.3-0.1c0,0-0.1,0-0.1-0.1c0,0,0-0.1,0-0.1
				l0.3-0.6c0,0,0-0.1,0.1-0.1c0,0,0.1,0,0.1,0l1.7,0.8c0,0,0.1,0,0.1,0.1c0,0,0,0.1,0,0.1l-0.3,0.6c0,0,0,0.1-0.1,0.1
				c0,0-0.1,0-0.1,0l-0.2-0.1c0,0-0.1,0-0.1,0c0,0-0.1,0-0.1,0.1L70.8,23c0,0,0,0.1,0,0.1c0,0,0,0.1,0.1,0.1l0.2,0.1
				c0,0,0,0,0.1,0.1c0,0,0,0.1,0,0.1L70.8,24c0,0,0,0.1-0.1,0.1c0,0-0.1,0-0.1,0L69,23.3c0,0-0.1,0-0.1-0.1c0,0,0-0.1,0-0.1l0.3-0.6
				c0,0,0-0.1,0.1-0.1c0,0,0.1,0,0.1,0l0.3,0.1c0,0,0.1,0,0.1,0c0,0,0.1,0,0.1-0.1l1.1-2.4c0,0,0-0.1,0-0.1c0,0,0-0.1-0.1-0.1
				l-1.3-0.6c0,0-0.1,0-0.1,0c0,0-0.1,0-0.1,0.1l-1.1,2.4c0,0.1,0,0.1,0.1,0.2l0.3,0.1c0,0,0,0,0.1,0.1c0,0,0,0.1,0,0.1l-0.3,0.6
				c0,0,0,0.1-0.1,0.1c0,0-0.1,0-0.1,0l-1.7-0.8c0,0-0.1,0-0.1-0.1c0,0,0-0.1,0-0.1l0.3-0.6c0,0,0-0.1,0.1-0.1c0,0,0.1,0,0.1,0
				l0.2,0.1c0,0,0.1,0,0.1,0c0,0,0.1,0,0.1-0.1l2.6-5.6c0,0,0-0.1,0-0.1c0,0,0-0.1-0.1-0.1l-0.2-0.1c0,0-0.1,0-0.1-0.1
				c0,0,0-0.1,0-0.1L69.9,14.7z M65.3,14.3C65.3,14.3,65.3,14.3,65.3,14.3c0.1-0.1,0.1-0.2,0.1-0.2l0.8-0.5c0,0,0.1,0,0.1,0
				c0,0,0.1,0,0.1,0L68,14c0,0,0.1,0,0.1,0.1c0,0,0.1,0.1,0.1,0.1l0.4,0.9c0,0,0,0.1,0,0.1c0,0,0,0.1,0,0.1l-0.3,0.9
				c0,0,0,0.1-0.1,0.1c0,0-0.1,0-0.1,0l-0.8-0.2c0,0-0.1,0-0.1-0.1c0,0,0-0.1,0-0.1l0.3-0.9c0,0,0-0.1,0-0.1c0,0,0,0-0.1-0.1l-1-0.3
				c-0.1,0-0.1,0-0.1,0.1l-1.8,5.9c0,0.1,0,0.1,0.1,0.1l1,0.3c0,0,0.1,0,0.1,0c0,0,0,0,0.1-0.1l0.3-1c0,0,0-0.1,0.1-0.1
				c0,0,0.1,0,0.1,0l0.8,0.2c0,0,0.1,0,0.1,0.1c0,0,0,0.1,0,0.1l-0.3,1c0,0,0,0.1-0.1,0.1c0,0-0.1,0.1-0.1,0.1L65.8,22
				c0,0-0.1,0-0.1,0c0,0-0.1,0-0.1,0l-1.5-0.4c0,0-0.1,0-0.1-0.1c0,0-0.1-0.1-0.1-0.1l-0.4-0.9c0,0,0-0.1,0-0.1c0,0,0-0.1,0-0.1
				L65.3,14.3z M64.4,45.7c1,0.9,2.2,0.6,3.2-0.1c-0.3,0.4-3.7,5-3.8,5.3c0,0-2.1,3.2-7-0.5c0,0-3.4-2.5-1.2-5.2l3.3-4.2
				c-0.3,2.2,0.9,2.4,0.9,2.4c1.4,0.2,1.1-1.6,1.1-1.6L60.1,39c0,0,0,0,0-0.1c0.8-1.3,1.6-3,1.8-3.7c2.3-1.6,5.9-1.8,5.9-1.8
				c3.2,6.1,2,8.7,2,8.7c-1.5,2.1-4.1,2.4-4.1,2.4C64.1,44.5,64.4,45.7,64.4,45.7z M59.1,59.9c-0.4,0-0.7-0.3-0.7-0.6
				c0-0.4,0.3-0.7,0.6-0.7c0.4,0,0.7,0.3,0.7,0.6C59.8,59.6,59.5,59.9,59.1,59.9z M58.7,19.6C58.8,19.6,58.8,19.6,58.7,19.6l0.3,0
				c0.1,0,0.1,0,0.2-0.1l2.1-5.9c0,0,0-0.1,0-0.1c0,0,0,0-0.1,0l-0.1,0c0,0-0.1,0-0.1,0c0,0,0-0.1,0-0.1l0.1-0.7c0,0,0-0.1,0-0.1
				c0,0,0.1,0,0.1,0l1.7,0.3c0,0,0.1,0,0.1,0c0,0,0,0.1,0,0.1l-0.1,0.7c0,0,0,0.1-0.1,0.1c0,0-0.1,0-0.1,0l-0.1,0
				c-0.1,0-0.1,0-0.1,0.1l0.2,6.3c0,0,0,0.1,0,0.1c0,0,0.1,0,0.1,0l0.2,0c0,0,0.1,0,0.1,0c0,0,0,0.1,0,0.1l-0.1,0.7c0,0,0,0.1,0,0.1
				c0,0-0.1,0-0.1,0L61.5,21c0,0-0.1,0-0.1-0.1c0,0,0-0.1,0-0.1l0.1-0.7c0,0,0-0.1,0.1-0.1c0,0,0.1,0,0.1,0l0.3,0
				c0.1,0,0.1,0,0.1-0.1L62,18.6c0,0,0-0.1,0-0.1c0,0-0.1,0-0.1,0l-1.1-0.2c-0.1,0-0.1,0-0.2,0.1l-0.5,1.3c0,0,0,0.1,0,0.1
				c0,0,0,0,0.1,0l0.2,0c0,0,0.1,0,0.1,0.1c0,0,0,0.1,0,0.1l-0.1,0.7c0,0,0,0.1-0.1,0.1c0,0-0.1,0-0.1,0l-1.6-0.3c0,0-0.1,0-0.1-0.1
				c0,0,0-0.1,0-0.1L58.7,19.6C58.7,19.7,58.7,19.7,58.7,19.6z M45.5,44.4c0,0-1.9-1.7-2-4.2c0,0,0.4-2.8,6.3-6c0,0,2.8,2.1,3.9,4.6
				c-0.3,0.7-0.5,2.5-0.6,4c0,0,0,0-0.1,0l-2.1,1.8c0,0-1.2,1.3,0.1,1.9c0,0,1.1,0.5,2-1.4l0.4,5.2c0.3,3.4-3.8,3.6-3.8,3.6
				c-6,0.4-6-3.3-6-3.3c0-0.3-0.2-5.9-0.3-6.4c0.4,1.1,1.2,2,2.5,1.8C45.9,46,46.9,45.2,45.5,44.4z M55,12.3
				C55,12.3,55.1,12.2,55,12.3l3.3,0c0,0,0.1,0,0.1,0c0,0,0,0.1,0,0.1l0,1.9c0,0,0,0.1,0,0.1c0,0-0.1,0-0.1,0l-0.7,0
				c0,0-0.1,0-0.1,0c0,0,0-0.1,0-0.1l0-1c0,0,0-0.1,0-0.1c0,0-0.1,0-0.1,0l-0.8,0c-0.1,0-0.1,0-0.1,0.1l0,2.4c0,0,0,0.1,0,0.1
				c0,0,0,0,0.1,0l0.4,0c0,0,0.1,0,0.1,0c0,0,0-0.1,0-0.1l0-0.4c0-0.1,0-0.1,0.1-0.1l0.7,0c0,0,0.1,0,0.1,0c0,0,0,0.1,0,0.1l0,1.9
				c0,0,0,0.1,0,0.1c0,0-0.1,0-0.1,0l-0.7,0c-0.1,0-0.1,0-0.1-0.1l0-0.3c0,0,0-0.1,0-0.1c0,0-0.1,0-0.1,0l-0.4,0c0,0-0.1,0-0.1,0
				c0,0,0,0.1,0,0.1l0,2.6c0,0.1,0,0.1,0.1,0.1l0.9,0c0,0,0.1,0,0.1,0c0,0,0,0,0-0.1l0-1c0,0,0-0.1,0-0.1c0,0,0.1,0,0.1,0l0.7,0
				c0,0,0.1,0,0.1,0c0,0,0,0.1,0,0.1l0,1.9c0,0,0,0.1,0,0.1c0,0-0.1,0-0.1,0L55,20.5c0,0-0.1,0-0.1,0c0,0,0-0.1,0-0.1l0-0.7
				c0,0,0-0.1,0-0.1c0,0,0.1,0,0.1,0l0.2,0c0,0,0.1,0,0.1,0c0,0,0,0,0-0.1l0.1-6.2c0,0,0-0.1,0-0.1c0,0-0.1,0-0.1,0l-0.2,0
				c0,0-0.1,0-0.1,0c0,0,0-0.1,0-0.1L55,12.3C55,12.3,55,12.3,55,12.3z M50.1,12.8C50.1,12.7,50.2,12.7,50.1,12.8l2.7-0.3
				c0,0,0.1,0,0.1,0c0,0,0.1,0,0.1,0.1l0.7,0.7c0.1,0.1,0.1,0.1,0.1,0.2l0.2,2.1c0,0.1,0,0.1-0.1,0.2l-0.4,0.6c0,0.1,0,0.1,0,0.2
				l0.5,0.5c0.1,0.1,0.1,0.1,0.1,0.2l0.2,2.3c0,0,0,0.1,0,0.1c0,0,0,0.1,0,0.1l-0.5,0.8c0,0,0,0.1-0.1,0.1c0,0-0.1,0-0.1,0l-2.7,0.3
				c0,0-0.1,0-0.1,0c0,0,0,0,0-0.1l-0.1-0.7c0,0,0-0.1,0-0.1c0,0,0,0,0.1,0l0.2,0c0,0,0.1,0,0.1,0c0,0,0-0.1,0-0.1l-0.7-6.2
				c0,0,0-0.1,0-0.1c0,0-0.1,0-0.1,0l-0.2,0c0,0-0.1,0-0.1,0c0,0,0-0.1,0-0.1L50.1,12.8C50.1,12.8,50.1,12.8,50.1,12.8z M47.4,16
				c0.8,0.2,1.4,1,1.3,1.8c-0.2,0.8-1,1.4-1.8,1.3c-0.8-0.2-1.4-1-1.3-1.8C45.8,16.4,46.6,15.8,47.4,16z M35.8,52.4l-0.3,0.2
				c-3-5.2-4.1-11.4-3-17.4c1.2-6.7,5-12.5,10.6-16.3l0.2,0.3c-5.5,3.8-9.2,9.5-10.5,16.1C31.8,41.2,32.8,47.3,35.8,52.4z
				 M41.9,35.1c-0.6-1.7,0.1-3.2,0.1-3.2c3.1-5.7,9.3-4.9,9.3-4.9c5.1,0.6,4.1,6,4.1,6c-0.2,2-0.7,3.3-1,3.8c-0.5-1.3-1.6-3-4-4.6
				c0,0,0.6-1-0.2-1.1c0,0-0.5-0.1-0.5,1c0,0-5.6,3.1-6.7,6.3c0,0-0.1,0.4-0.2,1.1l-0.1-0.5c0,0,0,0.1,0,0.2
				C42.8,38.9,42.4,36.5,41.9,35.1z M39.7,59.2l3.1-4.8c-0.9-0.3-1.7,0-2.2,0.8c-0.2,0.4-0.2,0.5-0.2,0.5c-0.5-0.3-0.6-0.7-0.3-1.2
				c0.6-0.9,2.5-1,3.7-0.3c0.1,0.1,0.2,0.1,0.3,0.2l-2.7,4.4l4.3-3.4l0.5,0.3l-5.3,4L39.7,59.2z M67.3,63.4c-0.5,0.1-0.9-0.1-1-0.7
				c0-0.1,0-0.3,0-0.4l0-1.5c0-0.1,0-0.2,0-0.2c-0.1-0.3-0.3-0.4-0.5-0.4c-0.2,0-0.3,0.1-0.5,0.3l0,3.5l-1.2,0.3l0-2.9
				c-0.2,0.2-0.4,0.3-0.7,0.5c0,1.7-0.8,2.6-1.6,2.7c-0.8,0.1-1.2-0.2-1.4-0.9c-0.4,0.5-1,1-1.5,1.1c-0.6,0-1.1-0.2-1.1-0.9
				c0,0,0-0.1,0-0.1c-0.5,0.4-1.2,1-1.7,1c-0.6,0-1.2-0.3-1.2-0.9c0,0,0,0,0,0c0,0.4-1.1,0.9-1.5,0.8c-0.5-0.1-0.8-0.3-0.9-0.8
				c-0.3,0.3-0.7,0.6-1.2,0.5c-0.8-0.1-0.9-0.7-0.9-1.2c0-0.1,0.1-0.3,0.1-0.4c-0.5,0.4-1.2,1.1-2.5,0.7c-0.6-0.2-0.9-0.5-0.8-1.2
				c-0.6,0.2-1.4,0.5-1.8,0.3c-0.5-0.2-0.7-0.6-0.7-1c-0.4,0.2-0.9,0.4-1.3,0.2c-0.7-0.3-0.7-1-0.5-1.4c0.6-1.3,1.8-2.7,3.3-2
				c0.2,0.1,0.3,0.2,0.4,0.4l0.1-0.2l1.1,0.5l-1.7,2.3c-0.1,0.1-0.1,0.2-0.1,0.2c-0.1,0.2-0.1,0.3,0.2,0.5c0.2,0.1,0.6,0,1-0.1
				c0-0.1,0-0.1,0-0.2c0.4-1.2,1.3-2.6,2.9-2.1c0.4,0.1,0.9,0.4,0.7,0.8c0,0.1-0.1,0.2-0.1,0.3c0,0-0.1-0.1-0.2-0.1
				c-0.1,0-0.2,0-0.3,0c0.1-0.1,0.1-0.1,0.1-0.2c0.1-0.2,0-0.3-0.2-0.4c-0.7-0.2-1.5,1-1.8,1.8c-0.1,0.5-0.2,0.9,0.3,1
				c0.6,0.2,1.1,0,1.6-0.3l0.2,0.1c0.3-1.3,1.1-2.5,2.5-2.3c0.2,0,0.4,0.1,0.5,0.3l0.1-0.2l1.2,0.2l-1,2.7c0,0.1-0.1,0.2-0.1,0.3
				c0,0.2,0,0.3,0.4,0.4c0.3,0,0.7-0.2,1-0.4c0.1-0.7,0.5-2,0.6-2.6l-0.3,0l0.1-0.3l0.3,0l0.3-1.2l1.2-0.1c0,0-0.1,0.6-0.3,1.3
				l0.5,0l-0.1,0.3l-0.5,0c-0.7,2.6-0.6,2.7-0.6,2.8c0,0.2,0.1,0.3,0.4,0.3c0.3,0,0.6-0.3,0.9-0.6l0.5-2.9l1.2-0.1L59,63.2
				c0,0.1,0,0.2,0,0.3c0,0.2,0.1,0.3,0.4,0.3c0.3,0,0.6-0.3,0.8-0.6c0,0,0,0,0,0C60,61.2,61,60.2,62.1,60c0.8-0.1,1.1,0.5,1.2,1.1
				c0.1,0,0.1,0.1,0.3,0c0.2,0,0.4-0.1,0.5-0.3l0-1.1l1.2-0.3l0,0.5c0.3-0.3,0.6-0.6,1-0.7c0.5-0.1,1.1,0.3,1.2,0.8
				c0,0.1,0,0.1,0,0.2c0,0.3,0,1.8,0,2c0,0.1,0.1,0.2,0.4,0.2c0.1,0,0.1,0,0.2-0.1C67.9,63.2,67.6,63.3,67.3,63.4z M74,38.7
				c-1.2,0.9-2.9,2.7-3,2.9c0-0.1,0.1-0.2,0.1-0.2l-0.3,0.4c0.3-0.6,0.5-1,0.5-1c0.8-3.4-2.2-9.2-2.2-9.2c0.7-0.9,0.2-1.2,0.2-1.2
				c-0.7-0.3-0.8,0.9-0.8,0.9c-3,0-4.9,0.9-6.1,1.7c0.1-0.6,0.4-1.9,1.3-3.8c0,0,2.3-5.2,6.9-2.8c0,0,5.8,2.8,5.2,9.5
				C75.8,35.9,75.5,37.6,74,38.7z M73.6,59.7l-0.2-0.3c4.7-3.8,7.8-9.1,8.9-15c1.2-6.7-0.2-13.4-4.1-18.9l0.3-0.2
				c3.9,5.6,5.4,12.5,4.2,19.2C81.5,50.5,78.3,55.9,73.6,59.7z"/>
		</g>
	</g>
</g>
</svg>
